# xmcd
#
# Track frame offsets: 
#        150
#        3405
#        19020
#        34887
#        52089
#        69813
#        85632
#        104076
#        118023
#        137112
#        150462
#
# Disc length: 2281 seconds
#
# Revision: 2
# Processed by: cddbd v1.5.2PL0 Copyright (c) Steve Scherf et al.
# Submitted via: ExactAudioCopy v1.0b1
#
DISCID=8808e70b
DTITLE=Urban Turban - Codes of love
DYEAR=1900
DGENRE=Ethnic
TTITLE0=Catch up
TTITLE1=Codes of love
TTITLE2=Killing after math
TTITLE3=Everything goes
TTITLE4=Sad
TTITLE5=Beautiful eyes
TTITLE6=My house
TTITLE7=Aren't you too aggressive now
TTITLE8=Turn my head around
TTITLE9=Epic love
TTITLE10=Wrong door right door
EXTD=
EXTT0=
EXTT1=
EXTT2=
EXTT3=
EXTT4=
EXTT5=
EXTT6=
EXTT7=
EXTT8=
EXTT9=
EXTT10=
PLAYORDER=
